<?xml version="1.0" encoding="UTF-8" standalone="no"?>
<!DOCTYPE svg PUBLIC "-//W3C//DTD SVG 1.1//EN"
 "http://www.w3.org/Graphics/SVG/1.1/DTD/svg11.dtd">
<!-- Generated by graphviz version 2.36.0 (20140111.2315)
 -->
<!-- Title: controllers_diagram Pages: 1 -->
<svg width="637pt" height="625pt"
 viewBox="0.00 0.00 637.00 625.00" xmlns="http://www.w3.org/2000/svg" xmlns:xlink="http://www.w3.org/1999/xlink">
<g id="graph0" class="graph" transform="scale(1 1) rotate(0) translate(4 621)">
<title>controllers_diagram</title>
<polygon fill="none" stroke="none" points="-4,4 -4,-621 633,-621 633,4 -4,4"/>
<!-- _diagram_info -->
<g id="node1" class="node"><title>_diagram_info</title>
<text text-anchor="start" x="382" y="-488.6" font-family="Times,serif" font-size="13.00">Controllers diagram</text>
<text text-anchor="start" x="382" y="-474.6" font-family="Times,serif" font-size="13.00">Date: Jun 22 2017 &#45; 14:02</text>
<text text-anchor="start" x="382" y="-460.6" font-family="Times,serif" font-size="13.00">Migration version: 20170620131048</text>
<text text-anchor="start" x="382" y="-446.6" font-family="Times,serif" font-size="13.00">Generated by RailRoady 1.5.3</text>
<text text-anchor="start" x="382" y="-432.6" font-family="Times,serif" font-size="13.00">http://railroady.prestonlee.com</text>
</g>
<!-- AccountActivationsController -->
<g id="node2" class="node"><title>AccountActivationsController</title>
<path fill="none" stroke="black" d="M165,-425.5C165,-425.5 321,-425.5 321,-425.5 327,-425.5 333,-431.5 333,-437.5 333,-437.5 333,-506.5 333,-506.5 333,-512.5 327,-518.5 321,-518.5 321,-518.5 165,-518.5 165,-518.5 159,-518.5 153,-512.5 153,-506.5 153,-506.5 153,-437.5 153,-437.5 153,-431.5 159,-425.5 165,-425.5"/>
<text text-anchor="middle" x="243" y="-503.3" font-family="Times,serif" font-size="14.00">AccountActivationsController</text>
<polyline fill="none" stroke="black" points="153,-495.5 333,-495.5 "/>
<text text-anchor="start" x="161" y="-480.3" font-family="Times,serif" font-size="14.00">edit</text>
<polyline fill="none" stroke="black" points="153,-472.5 333,-472.5 "/>
<polyline fill="none" stroke="black" points="153,-448.5 333,-448.5 "/>
<text text-anchor="start" x="161" y="-433.3" font-family="Times,serif" font-size="14.00">_layout</text>
</g>
<!-- SessionsController -->
<g id="node3" class="node"><title>SessionsController</title>
<path fill="none" stroke="black" d="M12,-493.5C12,-493.5 107,-493.5 107,-493.5 113,-493.5 119,-499.5 119,-505.5 119,-505.5 119,-604.5 119,-604.5 119,-610.5 113,-616.5 107,-616.5 107,-616.5 12,-616.5 12,-616.5 6,-616.5 0,-610.5 0,-604.5 0,-604.5 0,-505.5 0,-505.5 0,-499.5 6,-493.5 12,-493.5"/>
<text text-anchor="middle" x="59.5" y="-601.3" font-family="Times,serif" font-size="14.00">SessionsController</text>
<polyline fill="none" stroke="black" points="0,-593.5 119,-593.5 "/>
<text text-anchor="start" x="8" y="-578.3" font-family="Times,serif" font-size="14.00">create</text>
<text text-anchor="start" x="8" y="-563.3" font-family="Times,serif" font-size="14.00">destroy</text>
<text text-anchor="start" x="8" y="-548.3" font-family="Times,serif" font-size="14.00">new</text>
<polyline fill="none" stroke="black" points="0,-540.5 119,-540.5 "/>
<polyline fill="none" stroke="black" points="0,-516.5 119,-516.5 "/>
<text text-anchor="start" x="8" y="-501.3" font-family="Times,serif" font-size="14.00">_layout</text>
</g>
<!-- ApplicationController -->
<g id="node4" class="node"><title>ApplicationController</title>
<path fill="none" stroke="black" d="M505,-0.5C505,-0.5 617,-0.5 617,-0.5 623,-0.5 629,-6.5 629,-12.5 629,-12.5 629,-96.5 629,-96.5 629,-102.5 623,-108.5 617,-108.5 617,-108.5 505,-108.5 505,-108.5 499,-108.5 493,-102.5 493,-96.5 493,-96.5 493,-12.5 493,-12.5 493,-6.5 499,-0.5 505,-0.5"/>
<text text-anchor="middle" x="561" y="-93.3" font-family="Times,serif" font-size="14.00">ApplicationController</text>
<polyline fill="none" stroke="black" points="493,-85.5 629,-85.5 "/>
<text text-anchor="start" x="501" y="-70.3" font-family="Times,serif" font-size="14.00">hello</text>
<polyline fill="none" stroke="black" points="493,-62.5 629,-62.5 "/>
<polyline fill="none" stroke="black" points="493,-38.5 629,-38.5 "/>
<text text-anchor="start" x="501" y="-23.3" font-family="Times,serif" font-size="14.00">_layout</text>
<text text-anchor="start" x="501" y="-8.3" font-family="Times,serif" font-size="14.00">logged_in_user</text>
</g>
<!-- UsersController -->
<g id="node5" class="node"><title>UsersController</title>
<path fill="none" stroke="black" d="M182,-136.5C182,-136.5 261,-136.5 261,-136.5 267,-136.5 273,-142.5 273,-148.5 273,-148.5 273,-382.5 273,-382.5 273,-388.5 267,-394.5 261,-394.5 261,-394.5 182,-394.5 182,-394.5 176,-394.5 170,-388.5 170,-382.5 170,-382.5 170,-148.5 170,-148.5 170,-142.5 176,-136.5 182,-136.5"/>
<text text-anchor="middle" x="221.5" y="-379.3" font-family="Times,serif" font-size="14.00">UsersController</text>
<polyline fill="none" stroke="black" points="170,-371.5 273,-371.5 "/>
<text text-anchor="start" x="178" y="-356.3" font-family="Times,serif" font-size="14.00">create</text>
<text text-anchor="start" x="178" y="-341.3" font-family="Times,serif" font-size="14.00">destroy</text>
<text text-anchor="start" x="178" y="-326.3" font-family="Times,serif" font-size="14.00">edit</text>
<text text-anchor="start" x="178" y="-311.3" font-family="Times,serif" font-size="14.00">followers</text>
<text text-anchor="start" x="178" y="-296.3" font-family="Times,serif" font-size="14.00">following</text>
<text text-anchor="start" x="178" y="-281.3" font-family="Times,serif" font-size="14.00">index</text>
<text text-anchor="start" x="178" y="-266.3" font-family="Times,serif" font-size="14.00">new</text>
<text text-anchor="start" x="178" y="-251.3" font-family="Times,serif" font-size="14.00">show</text>
<text text-anchor="start" x="178" y="-236.3" font-family="Times,serif" font-size="14.00">update</text>
<polyline fill="none" stroke="black" points="170,-228.5 273,-228.5 "/>
<polyline fill="none" stroke="black" points="170,-204.5 273,-204.5 "/>
<text text-anchor="start" x="178" y="-189.3" font-family="Times,serif" font-size="14.00">_layout</text>
<text text-anchor="start" x="178" y="-174.3" font-family="Times,serif" font-size="14.00">admin_user</text>
<text text-anchor="start" x="178" y="-159.3" font-family="Times,serif" font-size="14.00">corrent_user</text>
<text text-anchor="start" x="178" y="-144.3" font-family="Times,serif" font-size="14.00">user_params</text>
</g>
<!-- PasswordResetsController -->
<g id="node6" class="node"><title>PasswordResetsController</title>
<path fill="none" stroke="black" d="M318,-187.5C318,-187.5 453,-187.5 453,-187.5 459,-187.5 465,-193.5 465,-199.5 465,-199.5 465,-373.5 465,-373.5 465,-379.5 459,-385.5 453,-385.5 453,-385.5 318,-385.5 318,-385.5 312,-385.5 306,-379.5 306,-373.5 306,-373.5 306,-199.5 306,-199.5 306,-193.5 312,-187.5 318,-187.5"/>
<text text-anchor="middle" x="385.5" y="-370.3" font-family="Times,serif" font-size="14.00">PasswordResetsController</text>
<polyline fill="none" stroke="black" points="306,-362.5 465,-362.5 "/>
<text text-anchor="start" x="314" y="-347.3" font-family="Times,serif" font-size="14.00">create</text>
<text text-anchor="start" x="314" y="-332.3" font-family="Times,serif" font-size="14.00">edit</text>
<text text-anchor="start" x="314" y="-317.3" font-family="Times,serif" font-size="14.00">new</text>
<text text-anchor="start" x="314" y="-302.3" font-family="Times,serif" font-size="14.00">update</text>
<polyline fill="none" stroke="black" points="306,-294.5 465,-294.5 "/>
<polyline fill="none" stroke="black" points="306,-270.5 465,-270.5 "/>
<text text-anchor="start" x="314" y="-255.3" font-family="Times,serif" font-size="14.00">_layout</text>
<text text-anchor="start" x="314" y="-240.3" font-family="Times,serif" font-size="14.00">check_expiration</text>
<text text-anchor="start" x="314" y="-225.3" font-family="Times,serif" font-size="14.00">get_user</text>
<text text-anchor="start" x="314" y="-210.3" font-family="Times,serif" font-size="14.00">user_params</text>
<text text-anchor="start" x="314" y="-195.3" font-family="Times,serif" font-size="14.00">valid_user</text>
</g>
<!-- RelationshipsController -->
<g id="node7" class="node"><title>RelationshipsController</title>
<path fill="none" stroke="black" d="M318,-51.5C318,-51.5 440,-51.5 440,-51.5 446,-51.5 452,-57.5 452,-63.5 452,-63.5 452,-147.5 452,-147.5 452,-153.5 446,-159.5 440,-159.5 440,-159.5 318,-159.5 318,-159.5 312,-159.5 306,-153.5 306,-147.5 306,-147.5 306,-63.5 306,-63.5 306,-57.5 312,-51.5 318,-51.5"/>
<text text-anchor="middle" x="379" y="-144.3" font-family="Times,serif" font-size="14.00">RelationshipsController</text>
<polyline fill="none" stroke="black" points="306,-136.5 452,-136.5 "/>
<text text-anchor="start" x="314" y="-121.3" font-family="Times,serif" font-size="14.00">create</text>
<text text-anchor="start" x="314" y="-106.3" font-family="Times,serif" font-size="14.00">destroy</text>
<polyline fill="none" stroke="black" points="306,-98.5 452,-98.5 "/>
<polyline fill="none" stroke="black" points="306,-74.5 452,-74.5 "/>
<text text-anchor="start" x="314" y="-59.3" font-family="Times,serif" font-size="14.00">_layout</text>
</g>
<!-- MicropostsController -->
<g id="node8" class="node"><title>MicropostsController</title>
<path fill="none" stroke="black" d="M12,-255.5C12,-255.5 122,-255.5 122,-255.5 128,-255.5 134,-261.5 134,-267.5 134,-267.5 134,-381.5 134,-381.5 134,-387.5 128,-393.5 122,-393.5 122,-393.5 12,-393.5 12,-393.5 6,-393.5 0,-387.5 0,-381.5 0,-381.5 0,-267.5 0,-267.5 0,-261.5 6,-255.5 12,-255.5"/>
<text text-anchor="middle" x="67" y="-378.3" font-family="Times,serif" font-size="14.00">MicropostsController</text>
<polyline fill="none" stroke="black" points="0,-370.5 134,-370.5 "/>
<text text-anchor="start" x="8" y="-355.3" font-family="Times,serif" font-size="14.00">create</text>
<text text-anchor="start" x="8" y="-340.3" font-family="Times,serif" font-size="14.00">destroy</text>
<polyline fill="none" stroke="black" points="0,-332.5 134,-332.5 "/>
<polyline fill="none" stroke="black" points="0,-308.5 134,-308.5 "/>
<text text-anchor="start" x="8" y="-293.3" font-family="Times,serif" font-size="14.00">_layout</text>
<text text-anchor="start" x="8" y="-278.3" font-family="Times,serif" font-size="14.00">correct_user</text>
<text text-anchor="start" x="8" y="-263.3" font-family="Times,serif" font-size="14.00">micropost_params</text>
</g>
<!-- StaticPagesController -->
<g id="node9" class="node"><title>StaticPagesController</title>
<path fill="none" stroke="black" d="M12,-85.5C12,-85.5 122,-85.5 122,-85.5 128,-85.5 134,-91.5 134,-97.5 134,-97.5 134,-211.5 134,-211.5 134,-217.5 128,-223.5 122,-223.5 122,-223.5 12,-223.5 12,-223.5 6,-223.5 0,-217.5 0,-211.5 0,-211.5 0,-97.5 0,-97.5 0,-91.5 6,-85.5 12,-85.5"/>
<text text-anchor="middle" x="67" y="-208.3" font-family="Times,serif" font-size="14.00">StaticPagesController</text>
<polyline fill="none" stroke="black" points="0,-200.5 134,-200.5 "/>
<text text-anchor="start" x="8" y="-185.3" font-family="Times,serif" font-size="14.00">about</text>
<text text-anchor="start" x="8" y="-170.3" font-family="Times,serif" font-size="14.00">contact</text>
<text text-anchor="start" x="8" y="-155.3" font-family="Times,serif" font-size="14.00">help</text>
<text text-anchor="start" x="8" y="-140.3" font-family="Times,serif" font-size="14.00">home</text>
<polyline fill="none" stroke="black" points="0,-132.5 134,-132.5 "/>
<polyline fill="none" stroke="black" points="0,-108.5 134,-108.5 "/>
<text text-anchor="start" x="8" y="-93.3" font-family="Times,serif" font-size="14.00">_layout</text>
</g>
</g>
</svg>
