<?xml version="1.0" encoding="UTF-8" standalone="no"?>
<!DOCTYPE svg PUBLIC "-//W3C//DTD SVG 1.1//EN"
 "http://www.w3.org/Graphics/SVG/1.1/DTD/svg11.dtd">
<!-- Generated by graphviz version 2.36.0 (20140111.2315)
 -->
<!-- Title: models_diagram Pages: 1 -->
<svg width="713pt" height="410pt"
 viewBox="0.00 0.00 713.00 410.00" xmlns="http://www.w3.org/2000/svg" xmlns:xlink="http://www.w3.org/1999/xlink">
<g id="graph0" class="graph" transform="scale(1 1) rotate(0) translate(4 406)">
<title>models_diagram</title>
<polygon fill="none" stroke="none" points="-4,4 -4,-406 709,-406 709,4 -4,4"/>
<!-- _diagram_info -->
<g id="node1" class="node"><title>_diagram_info</title>
<text text-anchor="start" x="8" y="-312.6" font-family="Times,serif" font-size="13.00">Models diagram</text>
<text text-anchor="start" x="8" y="-298.6" font-family="Times,serif" font-size="13.00">Date: Jun 22 2017 &#45; 14:02</text>
<text text-anchor="start" x="8" y="-284.6" font-family="Times,serif" font-size="13.00">Migration version: 20170620131048</text>
<text text-anchor="start" x="8" y="-270.6" font-family="Times,serif" font-size="13.00">Generated by RailRoady 1.5.3</text>
<text text-anchor="start" x="8" y="-256.6" font-family="Times,serif" font-size="13.00">http://railroady.prestonlee.com</text>
</g>
<!-- Micropost -->
<g id="node2" class="node"><title>Micropost</title>
<path fill="none" stroke="black" d="M225.5,-0.5C225.5,-0.5 332.5,-0.5 332.5,-0.5 338.5,-0.5 344.5,-6.5 344.5,-12.5 344.5,-12.5 344.5,-109.5 344.5,-109.5 344.5,-115.5 338.5,-121.5 332.5,-121.5 332.5,-121.5 225.5,-121.5 225.5,-121.5 219.5,-121.5 213.5,-115.5 213.5,-109.5 213.5,-109.5 213.5,-12.5 213.5,-12.5 213.5,-6.5 219.5,-0.5 225.5,-0.5"/>
<text text-anchor="middle" x="279" y="-106.3" font-family="Times,serif" font-size="14.00">Micropost</text>
<polyline fill="none" stroke="black" points="213.5,-98.5 344.5,-98.5 "/>
<text text-anchor="start" x="221.5" y="-83.3" font-family="Times,serif" font-size="14.00">id :INTEGER</text>
<text text-anchor="start" x="221.5" y="-68.3" font-family="Times,serif" font-size="14.00">content :text</text>
<text text-anchor="start" x="221.5" y="-53.3" font-family="Times,serif" font-size="14.00">user_id :integer</text>
<text text-anchor="start" x="221.5" y="-38.3" font-family="Times,serif" font-size="14.00">created_at :datetime</text>
<text text-anchor="start" x="221.5" y="-23.3" font-family="Times,serif" font-size="14.00">updated_at :datetime</text>
<text text-anchor="start" x="221.5" y="-8.3" font-family="Times,serif" font-size="14.00">picture :varchar</text>
</g>
<!-- Relationship -->
<g id="node3" class="node"><title>Relationship</title>
<path fill="none" stroke="black" d="M382.5,-8C382.5,-8 489.5,-8 489.5,-8 495.5,-8 501.5,-14 501.5,-20 501.5,-20 501.5,-102 501.5,-102 501.5,-108 495.5,-114 489.5,-114 489.5,-114 382.5,-114 382.5,-114 376.5,-114 370.5,-108 370.5,-102 370.5,-102 370.5,-20 370.5,-20 370.5,-14 376.5,-8 382.5,-8"/>
<text text-anchor="middle" x="436" y="-98.8" font-family="Times,serif" font-size="14.00">Relationship</text>
<polyline fill="none" stroke="black" points="370.5,-91 501.5,-91 "/>
<text text-anchor="start" x="378.5" y="-75.8" font-family="Times,serif" font-size="14.00">id :INTEGER</text>
<text text-anchor="start" x="378.5" y="-60.8" font-family="Times,serif" font-size="14.00">follower_id :integer</text>
<text text-anchor="start" x="378.5" y="-45.8" font-family="Times,serif" font-size="14.00">followed_id :integer</text>
<text text-anchor="start" x="378.5" y="-30.8" font-family="Times,serif" font-size="14.00">created_at :datetime</text>
<text text-anchor="start" x="378.5" y="-15.8" font-family="Times,serif" font-size="14.00">updated_at :datetime</text>
</g>
<!-- User -->
<g id="node4" class="node"><title>User</title>
<path fill="none" stroke="black" d="M244,-175C244,-175 380,-175 380,-175 386,-175 392,-181 392,-187 392,-187 392,-389 392,-389 392,-395 386,-401 380,-401 380,-401 244,-401 244,-401 238,-401 232,-395 232,-389 232,-389 232,-187 232,-187 232,-181 238,-175 244,-175"/>
<text text-anchor="middle" x="312" y="-385.8" font-family="Times,serif" font-size="14.00">User</text>
<polyline fill="none" stroke="black" points="232,-378 392,-378 "/>
<text text-anchor="start" x="240" y="-362.8" font-family="Times,serif" font-size="14.00">id :INTEGER</text>
<text text-anchor="start" x="240" y="-347.8" font-family="Times,serif" font-size="14.00">name :varchar</text>
<text text-anchor="start" x="240" y="-332.8" font-family="Times,serif" font-size="14.00">email :varchar</text>
<text text-anchor="start" x="240" y="-317.8" font-family="Times,serif" font-size="14.00">created_at :datetime</text>
<text text-anchor="start" x="240" y="-302.8" font-family="Times,serif" font-size="14.00">updated_at :datetime</text>
<text text-anchor="start" x="240" y="-287.8" font-family="Times,serif" font-size="14.00">password_digest :varchar</text>
<text text-anchor="start" x="240" y="-272.8" font-family="Times,serif" font-size="14.00">remember_digest :varchar</text>
<text text-anchor="start" x="240" y="-257.8" font-family="Times,serif" font-size="14.00">admin :boolean</text>
<text text-anchor="start" x="240" y="-242.8" font-family="Times,serif" font-size="14.00">activation_digest :varchar</text>
<text text-anchor="start" x="240" y="-227.8" font-family="Times,serif" font-size="14.00">activated :boolean</text>
<text text-anchor="start" x="240" y="-212.8" font-family="Times,serif" font-size="14.00">activated_at :datetime</text>
<text text-anchor="start" x="240" y="-197.8" font-family="Times,serif" font-size="14.00">reset_digest :varchar</text>
<text text-anchor="start" x="240" y="-182.8" font-family="Times,serif" font-size="14.00">reset_sent_at :datetime</text>
</g>
<!-- User&#45;&gt;Micropost -->
<g id="edge1" class="edge"><title>User&#45;&gt;Micropost</title>
<path fill="none" stroke="#ce8e84" d="M294.349,-166.649C292.594,-154.69 290.858,-142.849 289.219,-131.672"/>
<ellipse fill="none" stroke="#ce8e84" cx="294.968" cy="-170.872" rx="4.00001" ry="4.00001"/>
<polygon fill="#ce8e84" stroke="#ce8e84" points="289.194,-131.503 292.195,-120.956 288.468,-126.556 287.743,-121.609 287.743,-121.609 287.743,-121.609 288.468,-126.556 283.29,-122.262 289.194,-131.503 289.194,-131.503"/>
</g>
<!-- User&#45;&gt;Relationship -->
<g id="edge2" class="edge"><title>User&#45;&gt;Relationship</title>
<path fill="none" stroke="#6b157d" d="M301.368,-166.641C303.907,-157.211 307.667,-148.186 313,-140 323.641,-123.665 336.125,-131.761 353,-122 355.847,-120.353 358.717,-118.631 361.59,-116.853"/>
<ellipse fill="none" stroke="#6b157d" cx="300.417" cy="-170.751" rx="4.00001" ry="4.00001"/>
<polygon fill="#6b157d" stroke="#6b157d" points="361.767,-116.74 372.619,-115.167 365.985,-114.055 370.203,-111.371 370.203,-111.371 370.203,-111.371 365.985,-114.055 367.787,-107.574 361.767,-116.74 361.767,-116.74"/>
<text text-anchor="middle" x="367.5" y="-144.3" font-family="Times,serif" font-size="14.00">active_relationships</text>
</g>
<!-- User&#45;&gt;Relationship -->
<g id="edge3" class="edge"><title>User&#45;&gt;Relationship</title>
<path fill="none" stroke="#2cbcf9" d="M397.006,-198.445C406.668,-184.979 415.397,-170.66 422,-156 426.461,-146.094 429.554,-135.066 431.686,-124.147"/>
<ellipse fill="none" stroke="#2cbcf9" cx="394.564" cy="-201.763" rx="4.00002" ry="4.00002"/>
<polygon fill="#2cbcf9" stroke="#2cbcf9" points="431.704,-124.044 437.823,-114.944 432.545,-119.115 433.387,-114.187 433.387,-114.187 433.387,-114.187 432.545,-119.115 428.951,-113.429 431.704,-124.044 431.704,-124.044"/>
<text text-anchor="middle" x="485" y="-144.3" font-family="Times,serif" font-size="14.00">passive_relationships</text>
</g>
<!-- User&#45;&gt;User -->
<g id="edge4" class="edge"><title>User&#45;&gt;User</title>
<path fill="none" stroke="#d8b362" d="M402.25,-296.716C407.113,-294.584 410,-291.679 410,-288 410,-284.321 407.113,-281.416 402.25,-279.284"/>
<polygon fill="#d8b362" stroke="#d8b362" points="401.966,-296.798 391.11,-295.251 397.163,-298.186 392.36,-299.574 392.36,-299.574 392.36,-299.574 397.163,-298.186 393.609,-303.897 401.966,-296.798 401.966,-296.798"/>
<polygon fill="#d8b362" stroke="#d8b362" points="401.966,-279.202 393.609,-272.103 397.163,-277.814 392.36,-276.426 392.36,-276.426 392.36,-276.426 397.163,-277.814 391.11,-280.749 401.966,-279.202 401.966,-279.202"/>
<text text-anchor="middle" x="436.5" y="-284.3" font-family="Times,serif" font-size="14.00">following</text>
</g>
<!-- User&#45;&gt;User -->
<g id="edge5" class="edge"><title>User&#45;&gt;User</title>
<path fill="none" stroke="#99c2e4" d="M402.518,-314.249C435.211,-314.158 463,-305.408 463,-288 463,-270.592 435.211,-261.842 402.518,-261.751"/>
<polygon fill="#99c2e4" stroke="#99c2e4" points="402.237,-314.243 392.349,-309.501 397.238,-314.121 392.24,-314 392.24,-314 392.24,-314 397.238,-314.121 392.131,-318.498 402.237,-314.243 402.237,-314.243"/>
<polygon fill="#99c2e4" stroke="#99c2e4" points="402.237,-261.757 392.131,-257.502 397.238,-261.879 392.24,-262 392.24,-262 392.24,-262 397.238,-261.879 392.349,-266.499 402.237,-261.757 402.237,-261.757"/>
<text text-anchor="middle" x="489" y="-284.3" font-family="Times,serif" font-size="14.00">followers</text>
</g>
<!-- ApplicationRecord -->
<g id="node5" class="node"><title>ApplicationRecord</title>
<ellipse fill="none" stroke="black" cx="628" cy="-288" rx="77.0154" ry="18"/>
<text text-anchor="middle" x="628" y="-284.3" font-family="Times,serif" font-size="14.00">ApplicationRecord</text>
</g>
</g>
</svg>
