<?xml version="1.0" encoding="UTF-8" standalone="no"?>
<!DOCTYPE svg PUBLIC "-//W3C//DTD SVG 1.1//EN"
 "http://www.w3.org/Graphics/SVG/1.1/DTD/svg11.dtd">
<!-- Generated by graphviz version 2.36.0 (20140111.2315)
 -->
<!-- Title: models_diagram Pages: 1 -->
<svg width="608pt" height="174pt"
 viewBox="0.00 0.00 608.00 174.00" xmlns="http://www.w3.org/2000/svg" xmlns:xlink="http://www.w3.org/1999/xlink">
<g id="graph0" class="graph" transform="scale(1 1) rotate(0) translate(4 170)">
<title>models_diagram</title>
<polygon fill="none" stroke="none" points="-4,4 -4,-170 604,-170 604,4 -4,4"/>
<!-- _diagram_info -->
<g id="node1" class="node"><title>_diagram_info</title>
<text text-anchor="start" x="8" y="-151.6" font-family="Times,serif" font-size="13.00">Models diagram</text>
<text text-anchor="start" x="8" y="-137.6" font-family="Times,serif" font-size="13.00">Date: Jun 22 2017 &#45; 14:02</text>
<text text-anchor="start" x="8" y="-123.6" font-family="Times,serif" font-size="13.00">Migration version: 20170620131048</text>
<text text-anchor="start" x="8" y="-109.6" font-family="Times,serif" font-size="13.00">Generated by RailRoady 1.5.3</text>
<text text-anchor="start" x="8" y="-95.6" font-family="Times,serif" font-size="13.00">http://railroady.prestonlee.com</text>
</g>
<!-- Micropost -->
<g id="node2" class="node"><title>Micropost</title>
<ellipse fill="none" stroke="black" cx="226" cy="-18" rx="47.169" ry="18"/>
<text text-anchor="middle" x="226" y="-14.3" font-family="Times,serif" font-size="14.00">Micropost</text>
</g>
<!-- Relationship -->
<g id="node3" class="node"><title>Relationship</title>
<ellipse fill="none" stroke="black" cx="369" cy="-18" rx="55.3682" ry="18"/>
<text text-anchor="middle" x="369" y="-14.3" font-family="Times,serif" font-size="14.00">Relationship</text>
</g>
<!-- User -->
<g id="node4" class="node"><title>User</title>
<ellipse fill="none" stroke="black" cx="259" cy="-127" rx="26.949" ry="18"/>
<text text-anchor="middle" x="259" y="-123.3" font-family="Times,serif" font-size="14.00">User</text>
</g>
<!-- User&#45;&gt;Micropost -->
<g id="edge1" class="edge"><title>User&#45;&gt;Micropost</title>
<path fill="none" stroke="#dbb7b7" d="M250.384,-101.638C247.014,-91.8476 243.198,-80.429 240,-70 237.605,-62.1873 235.183,-53.6427 233.042,-45.8195"/>
<ellipse fill="none" stroke="#dbb7b7" cx="251.775" cy="-105.642" rx="4.00001" ry="4.00001"/>
<polygon fill="#dbb7b7" stroke="#dbb7b7" points="233.018,-45.7285 234.761,-34.9021 231.717,-40.9006 230.416,-36.0728 230.416,-36.0728 230.416,-36.0728 231.717,-40.9006 226.071,-37.2434 233.018,-45.7285 233.018,-45.7285"/>
</g>
<!-- User&#45;&gt;Relationship -->
<g id="edge2" class="edge"><title>User&#45;&gt;Relationship</title>
<path fill="none" stroke="#6e7ed7" d="M252.593,-101.184C250.226,-86.1266 250.15,-67.3126 260,-54 266.879,-44.7031 290.028,-36.6259 313.234,-30.5808"/>
<ellipse fill="none" stroke="#6e7ed7" cx="253.35" cy="-105.174" rx="4.00001" ry="4.00001"/>
<polygon fill="#6e7ed7" stroke="#6e7ed7" points="313.432,-30.5317 324.223,-32.4836 318.284,-29.3242 323.136,-28.1168 323.136,-28.1168 323.136,-28.1168 318.284,-29.3242 322.049,-23.7499 313.432,-30.5317 313.432,-30.5317"/>
<text text-anchor="middle" x="314.5" y="-58.3" font-family="Times,serif" font-size="14.00">active_relationships</text>
</g>
<!-- User&#45;&gt;Relationship -->
<g id="edge3" class="edge"><title>User&#45;&gt;Relationship</title>
<path fill="none" stroke="#22bb2b" d="M292.511,-118.904C318.379,-111.476 352.455,-96.9879 369,-70 373.247,-63.0718 374.449,-54.556 374.243,-46.4815"/>
<ellipse fill="none" stroke="#22bb2b" cx="288.638" cy="-119.948" rx="4.00001" ry="4.00001"/>
<polygon fill="#22bb2b" stroke="#22bb2b" points="374.222,-46.2491 377.78,-35.8767 373.761,-41.2704 373.299,-36.2917 373.299,-36.2917 373.299,-36.2917 373.761,-41.2704 368.819,-36.7067 374.222,-46.2491 374.222,-46.2491"/>
<text text-anchor="middle" x="431" y="-58.3" font-family="Times,serif" font-size="14.00">passive_relationships</text>
</g>
<!-- User&#45;&gt;User -->
<g id="edge4" class="edge"><title>User&#45;&gt;User</title>
<path fill="none" stroke="#08e5af" d="M295.12,-132.426C300.422,-131.571 304,-129.763 304,-127 304,-124.237 300.422,-122.429 295.12,-121.574"/>
<polygon fill="#08e5af" stroke="#08e5af" points="294.882,-132.438 284.66,-128.47 289.889,-132.701 284.896,-132.963 284.896,-132.963 284.896,-132.963 289.889,-132.701 285.132,-137.457 294.882,-132.438 294.882,-132.438"/>
<polygon fill="#08e5af" stroke="#08e5af" points="294.882,-121.562 285.132,-116.543 289.889,-121.299 284.896,-121.037 284.896,-121.037 284.896,-121.037 289.889,-121.299 284.66,-125.53 294.882,-121.562 294.882,-121.562"/>
<text text-anchor="middle" x="330.5" y="-123.3" font-family="Times,serif" font-size="14.00">following</text>
</g>
<!-- User&#45;&gt;User -->
<g id="edge5" class="edge"><title>User&#45;&gt;User</title>
<path fill="none" stroke="#cef412" d="M292.733,-137.54C321.98,-141.304 357,-137.79 357,-127 357,-116.21 321.98,-112.696 292.733,-116.46"/>
<polygon fill="#cef412" stroke="#cef412" points="292.566,-137.513 283.419,-131.464 287.631,-136.709 282.696,-135.906 282.696,-135.906 282.696,-135.906 287.631,-136.709 281.973,-140.347 292.566,-137.513 292.566,-137.513"/>
<polygon fill="#cef412" stroke="#cef412" points="292.566,-116.487 281.973,-113.653 287.631,-117.291 282.696,-118.094 282.696,-118.094 282.696,-118.094 287.631,-117.291 283.419,-122.536 292.566,-116.487 292.566,-116.487"/>
<text text-anchor="middle" x="383" y="-123.3" font-family="Times,serif" font-size="14.00">followers</text>
</g>
<!-- ApplicationRecord -->
<g id="node5" class="node"><title>ApplicationRecord</title>
<ellipse fill="none" stroke="black" cx="523" cy="-127" rx="77.0154" ry="18"/>
<text text-anchor="middle" x="523" y="-123.3" font-family="Times,serif" font-size="14.00">ApplicationRecord</text>
</g>
</g>
</svg>
